<svg width="72" height="78" viewBox="0 0 72 78" fill="none" xmlns="http://www.w3.org/2000/svg">
<path d="M0.424 62L20.392 17.2H30.632L50.664 62H39.784L23.4 22.448H27.496L11.048 62H0.424ZM10.408 52.4L13.16 44.528H36.2L39.016 52.4H10.408Z" fill="#FFFBFB"/>
<mask id="mask0_307_727" style="mask-type:alpha" maskUnits="userSpaceOnUse" x="0" y="17" width="51" height="45">
<path d="M0.424 62L20.392 17.2H30.632L50.664 62H39.784L23.4 22.448H27.496L11.048 62H0.424ZM10.408 52.4L13.16 44.528H36.2L39.016 52.4H10.408Z" fill="#FFFBFB"/>
</mask>
<g mask="url(#mask0_307_727)">
<path d="M-13.5375 79.3528C-47.0034 45.0593 -42.4472 85.2759 -42.4973 136.165L-67.6393 62.5196L-11.7682 -48.9999L46.8964 62.5196L15.0499 136.165C16.1863 92.6013 29.2339 39.3703 -5.62239 79.3528C-5.62239 79.3528 -2.82884 48.8427 1.64085 39.3741C4.6326 33.0363 -5.89261 6.79404 -9.99678 -9.79522C-15.8078 5.17683 -26.8882 28.2931 -19.6833 39.3741C-8.56206 56.4783 -11.0836 81.1711 -13.5375 79.3528Z" fill="url(#paint0_linear_307_727)"/>
</g>
<path d="M71.0678 15.6558L51.0998 60.4558H40.8598L20.8278 15.6558H31.7078L48.0918 55.2078H43.9958L60.4438 15.6558H71.0678ZM61.0838 25.2558L58.3318 33.1278L35.2918 33.1278L32.4758 25.2558L61.0838 25.2558Z" fill="#FFFBFB"/>
<mask id="mask1_307_727" style="mask-type:alpha" maskUnits="userSpaceOnUse" x="20" y="15" width="52" height="46">
<path d="M71.0678 15.6558L51.0998 60.4558H40.8598L20.8278 15.6558H31.7078L48.0918 55.2078H43.9958L60.4438 15.6558H71.0678ZM61.0838 25.2558L58.3318 33.1278L35.2918 33.1278L32.4758 25.2558L61.0838 25.2558Z" fill="#FFFBFB"/>
</mask>
<g mask="url(#mask1_307_727)">
<path d="M70.4567 -34.6246C100.371 0.893822 98.819 -38.2999 102.475 -87.482L121.555 -14.5192L59.6471 89.3073L10.852 -22.6392L46.8538 -91.5618C42.6669 -49.537 26.2822 0.987589 62.8066 -35.1857C62.8066 -35.1857 57.9435 -5.89472 52.9521 2.94017C49.6111 8.85374 57.9237 34.9639 60.7144 51.289C67.3924 37.23 79.7408 15.6729 73.5626 4.45194C64.0262 -12.8683 68.2139 -36.556 70.4567 -34.6246Z" fill="url(#paint1_linear_307_727)"/>
</g>
<defs>
<linearGradient id="paint0_linear_307_727" x1="-10.3714" y1="-48.9999" x2="-10.3714" y2="136.165" gradientUnits="userSpaceOnUse">
<stop stop-color="#9B0723"/>
<stop offset="1" stop-color="#9B0723" stop-opacity="0.7"/>
</linearGradient>
<linearGradient id="paint1_linear_307_727" x1="58.2971" y1="89.2082" x2="71.4243" y2="-89.7596" gradientUnits="userSpaceOnUse">
<stop stop-color="#9B0723"/>
<stop offset="1" stop-color="#9B0723" stop-opacity="0.7"/>
</linearGradient>
</defs>
</svg>
